<?xml version="1.0" standalone="no"?>
<!DOCTYPE svg PUBLIC "-//W3C//DTD SVG 20010904//EN"
 "http://www.w3.org/TR/2001/REC-SVG-20010904/DTD/svg10.dtd">
<svg version="1.0" xmlns="http://www.w3.org/2000/svg"
 width="605.000000pt" height="605.000000pt" viewBox="0 0 605.000000 605.000000"
 preserveAspectRatio="xMidYMid meet">

<g transform="translate(0.000000,605.000000) scale(0.100000,-0.100000)"
fill="#000000" stroke="none">
<path d="M2820 5897 c0 -21 -8 -24 -122 -45 -68 -12 -166 -27 -218 -33 -98
-11 -225 -41 -271 -65 -15 -7 -64 -23 -110 -35 -46 -11 -124 -40 -174 -64 -49
-24 -105 -48 -124 -54 -19 -6 -50 -23 -68 -37 -19 -14 -61 -37 -94 -49 -33
-13 -76 -38 -95 -55 -19 -16 -56 -41 -82 -55 -26 -14 -66 -40 -89 -58 -23 -17
-68 -50 -99 -72 -53 -37 -426 -406 -491 -485 -35 -42 -99 -136 -133 -195 -14
-24 -39 -61 -56 -82 -36 -44 -64 -96 -64 -116 0 -8 -16 -38 -35 -66 -19 -28
-44 -75 -56 -103 -11 -29 -35 -85 -54 -123 -19 -39 -45 -111 -59 -160 -14 -50
-39 -130 -55 -179 -21 -60 -36 -133 -46 -225 -9 -75 -22 -163 -30 -196 -8 -33
-15 -72 -15 -87 0 -23 -4 -28 -25 -28 l-25 0 0 -210 0 -210 25 0 c21 0 25 -5
25 -27 0 -16 7 -55 15 -88 8 -33 22 -123 30 -199 11 -96 25 -166 46 -225 17
-47 41 -126 54 -176 14 -49 40 -121 59 -160 19 -38 43 -94 55 -123 11 -30 35
-77 55 -105 19 -29 37 -65 41 -82 3 -16 22 -52 43 -79 20 -26 51 -70 67 -96
69 -109 111 -168 154 -220 79 -94 414 -423 478 -470 116 -85 146 -105 183
-125 20 -11 58 -37 83 -58 25 -21 66 -45 91 -52 24 -8 67 -29 95 -48 28 -20
68 -41 88 -47 21 -7 74 -30 118 -51 45 -22 121 -50 170 -64 50 -13 129 -37
176 -54 60 -21 128 -35 225 -46 76 -8 166 -22 199 -30 33 -8 72 -15 88 -15 22
0 27 -4 27 -25 l0 -25 210 0 210 0 0 25 c0 21 5 25 28 25 15 0 54 7 87 15 33
8 121 21 196 30 93 11 164 25 225 46 49 17 130 42 179 55 50 13 122 39 160 58
39 19 98 46 133 60 35 14 76 36 93 50 16 14 47 30 68 36 21 5 53 21 72 34 19
14 53 37 77 53 23 15 57 38 75 50 18 12 57 39 87 59 30 20 80 59 111 85 91 79
415 409 456 465 96 130 114 157 129 187 9 18 32 51 51 75 19 23 45 70 59 104
13 34 30 68 38 77 8 9 27 43 41 76 15 33 44 96 65 140 21 44 48 118 60 164 11
46 26 93 31 103 24 45 57 180 68 278 6 58 22 158 34 223 20 109 23 117 44 117
l23 0 0 210 0 210 -24 0 c-22 0 -26 6 -31 48 -4 26 -13 72 -20 102 -7 30 -16
89 -19 130 -11 121 -25 188 -66 311 -22 65 -44 138 -50 164 -6 26 -30 88 -54
139 -23 50 -53 115 -66 143 -13 29 -32 61 -42 70 -10 9 -24 37 -30 61 -6 25
-32 72 -60 108 -26 35 -48 67 -48 72 0 9 -42 70 -142 205 -57 78 -472 485
-527 517 -23 14 -61 40 -84 58 -22 18 -57 42 -77 52 -20 10 -56 35 -79 54 -23
20 -65 42 -92 50 -27 8 -66 28 -86 44 -21 16 -54 35 -73 42 -19 7 -75 32 -125
56 -49 23 -126 52 -170 63 -44 11 -125 36 -180 55 -71 24 -133 37 -215 46 -63
6 -144 17 -180 25 -36 8 -84 17 -107 20 -37 6 -43 10 -43 31 l0 24 -210 0
-210 0 0 -23z m510 -707 c41 -6 118 -24 170 -41 52 -16 129 -35 171 -43 82
-16 135 -35 177 -64 15 -11 53 -27 86 -37 32 -10 75 -30 95 -43 20 -14 61 -38
91 -53 30 -14 76 -43 102 -62 25 -20 59 -42 75 -50 15 -8 37 -25 48 -37 11
-12 45 -39 75 -60 72 -49 227 -204 298 -298 111 -146 198 -273 208 -305 4 -12
20 -40 36 -63 16 -22 39 -69 51 -105 13 -35 35 -84 49 -109 29 -51 42 -89 58
-175 6 -33 24 -103 40 -155 42 -136 55 -248 55 -470 0 -222 -13 -334 -55 -470
-16 -52 -36 -131 -45 -175 -8 -44 -29 -107 -46 -140 -17 -33 -39 -84 -50 -114
-25 -72 -82 -171 -209 -362 -93 -140 -290 -353 -388 -421 -26 -18 -56 -41 -67
-51 -11 -11 -38 -31 -60 -45 -22 -13 -56 -38 -76 -53 -20 -16 -60 -40 -90 -55
-30 -15 -69 -38 -87 -51 -18 -13 -63 -35 -100 -48 -37 -13 -93 -37 -124 -54
-36 -20 -92 -39 -150 -50 -51 -10 -122 -29 -158 -41 -226 -79 -757 -79 -960
-1 -30 12 -98 30 -151 41 -89 17 -122 29 -204 73 -16 9 -62 28 -102 42 -39 14
-77 33 -85 42 -7 9 -35 26 -63 38 -27 13 -78 43 -111 69 -34 25 -66 46 -71 46
-9 0 -44 28 -196 157 -90 78 -258 267 -311 351 -15 24 -43 64 -63 90 -20 26
-45 67 -56 92 -11 25 -31 59 -44 77 -14 18 -36 65 -50 105 -14 40 -33 84 -42
98 -26 37 -49 106 -66 194 -8 43 -24 104 -36 135 -79 213 -78 732 4 971 14 41
30 107 37 145 7 40 28 104 51 150 21 44 47 106 58 137 11 32 31 73 44 90 13
18 36 56 49 84 38 77 173 262 276 378 65 73 207 206 220 206 4 0 28 18 52 41
25 22 59 48 75 56 17 9 48 31 70 49 23 18 64 44 92 57 29 13 67 35 85 49 18
13 56 33 83 43 28 9 86 35 130 56 47 23 119 47 175 58 52 11 127 31 165 44 39
13 115 29 170 35 55 7 111 14 125 16 47 8 395 -2 470 -14z"/>
<path d="M2890 4329 c-95 -52 -100 -57 -152 -142 -41 -68 -43 -75 -46 -164 -4
-88 -2 -94 29 -154 18 -34 56 -85 84 -114 61 -65 104 -79 230 -80 129 0 169
18 240 106 85 105 99 144 91 253 -6 85 -8 93 -54 165 -45 70 -55 80 -133 123
-76 43 -90 47 -149 47 -57 0 -74 -5 -140 -40z"/>
<path d="M2920 3465 c-69 -22 -152 -102 -194 -187 l-36 -71 0 -654 c0 -548 2
-659 14 -688 20 -47 100 -158 136 -189 75 -63 301 -60 383 4 14 11 45 49 69
83 83 118 78 68 78 787 l0 640 -26 66 c-31 76 -104 159 -174 194 -57 29 -184
37 -250 15z"/>
</g>
</svg>
