<?xml version="1.0" standalone="no"?>
<!DOCTYPE svg PUBLIC "-//W3C//DTD SVG 20010904//EN"
 "http://www.w3.org/TR/2001/REC-SVG-20010904/DTD/svg10.dtd">
<svg version="1.0" xmlns="http://www.w3.org/2000/svg"
 width="24.000000pt" height="24.000000pt" viewBox="0 0 24.000000 24.000000"
 preserveAspectRatio="xMidYMid meet">

<g transform="translate(0.000000,24.000000) scale(0.100000,-0.100000)"
fill="#000000" stroke="none">
<path d="M20 115 c0 -66 4 -105 10 -105 6 0 29 9 51 21 23 11 48 18 57 14 14
-5 15 -4 5 6 -11 11 -22 9 -58 -9 -25 -12 -48 -22 -50 -22 -3 0 -5 43 -5 95
l0 95 90 0 90 0 0 -95 c0 -52 -3 -95 -6 -95 -3 0 -15 5 -27 11 -21 10 -21 10
-3 -5 41 -33 46 -22 46 89 l0 105 -100 0 -100 0 0 -105z"/>
</g>
</svg>
