<?xml version="1.0" standalone="no"?>
<!DOCTYPE svg PUBLIC "-//W3C//DTD SVG 20010904//EN"
 "http://www.w3.org/TR/2001/REC-SVG-20010904/DTD/svg10.dtd">
<svg version="1.0" xmlns="http://www.w3.org/2000/svg"
 width="18.000000pt" height="18.000000pt" viewBox="0 0 18.000000 18.000000"
 preserveAspectRatio="xMidYMid meet">

<g transform="translate(0.000000,18.000000) scale(0.100000,-0.100000)"
fill="#000000" stroke="none">
<path d="M17 143 c-4 -3 -7 -31 -7 -60 l0 -54 78 3 77 3 3 58 3 57 -74 0 c-40
0 -77 -3 -80 -7z m133 -44 c0 -36 -2 -40 -15 -29 -9 7 -18 10 -22 6 -3 -3 -15
2 -26 11 -18 17 -20 17 -38 -6 l-19 -23 0 41 0 41 60 0 60 0 0 -41z"/>
<path d="M115 110 c-3 -5 -2 -10 4 -10 5 0 13 5 16 10 3 6 2 10 -4 10 -5 0
-13 -4 -16 -10z"/>
</g>
</svg>
