<?xml version="1.0" standalone="no"?>
<!DOCTYPE svg PUBLIC "-//W3C//DTD SVG 20010904//EN"
 "http://www.w3.org/TR/2001/REC-SVG-20010904/DTD/svg10.dtd">
<svg version="1.0" xmlns="http://www.w3.org/2000/svg"
 width="500.000000pt" height="500.000000pt" viewBox="0 0 500.000000 500.000000"
 preserveAspectRatio="xMidYMid meet">

<g transform="translate(0.000000,500.000000) scale(0.100000,-0.100000)"
fill="#000000" stroke="none">
<path d="M2380 4601 c-78 -31 -154 -87 -221 -163 -35 -40 -66 -75 -69 -78 -11
-11 -108 -158 -135 -205 -32 -56 -195 -380 -195 -388 0 -23 -114 -239 -132
-250 -13 -8 -87 -22 -168 -31 -205 -23 -357 -43 -415 -55 -270 -56 -356 -81
-480 -143 -102 -51 -156 -95 -203 -166 -59 -88 -78 -205 -51 -306 25 -94 137
-289 211 -367 7 -8 46 -51 87 -97 40 -45 165 -168 277 -274 126 -117 207 -200
211 -216 5 -22 -16 -153 -47 -297 -10 -46 -43 -236 -59 -340 -36 -243 -17
-495 47 -622 41 -81 96 -134 180 -174 63 -30 74 -32 172 -32 176 1 299 38 585
179 174 85 238 119 350 184 22 13 55 31 73 41 18 10 39 22 47 29 34 28 87 14
220 -60 72 -40 135 -76 140 -80 31 -25 385 -193 470 -224 267 -95 473 -89 599
17 52 43 111 142 134 225 21 74 24 442 4 547 -7 39 -17 97 -23 130 -10 63 -35
189 -70 364 -17 86 -19 108 -8 128 7 12 55 62 108 109 234 211 447 435 547
576 89 126 134 245 134 357 0 159 -76 272 -240 359 -84 45 -239 102 -276 102
-13 0 -24 4 -24 9 0 5 -17 11 -37 14 -21 3 -92 15 -158 26 -124 23 -220 36
-365 51 -197 21 -223 27 -247 57 -13 15 -23 32 -23 36 0 5 -15 41 -34 80 -19
40 -48 104 -66 142 -149 325 -274 529 -410 666 -117 118 -201 159 -325 158
-43 0 -87 -7 -115 -18z"/>
</g>
</svg>
